HIERARCHY
ROOT Hips
{
  OFFSET 51.5477 97.0385 45.1888
  CHANNELS 6 Xposition Yposition Zposition Zrotation Xrotation Yrotation
  JOINT spine
  {
    OFFSET 0 7.96568 0.458067
    CHANNELS 3 Zrotation Xrotation Yrotation
    JOINT spine1
    {
      OFFSET 0 10.2431 0
      CHANNELS 3 Zrotation Xrotation Yrotation
      JOINT spine2
      {
        OFFSET 0 9.81475 0
        CHANNELS 3 Zrotation Xrotation Yrotation
        JOINT Neck
        {
          OFFSET 0 25.1986 1.20138
          CHANNELS 3 Zrotation Xrotation Yrotation
          JOINT Head
          {
            OFFSET 0 7.61315 0
            CHANNELS 3 Zrotation Xrotation Yrotation
            End Site
            {
              OFFSET 0 18.4281 -6.07733
            }
          }
        }
        JOINT RightShoulder
        {
          OFFSET -4.1327 10.5992 -0.575451
          CHANNELS 3 Zrotation Xrotation Yrotation
          JOINT RightArm
          {
            OFFSET 0 13.9018 0
            CHANNELS 3 Zrotation Xrotation Yrotation
            JOINT RightArmRoll
            {
              OFFSET 0 7.01789 0
              CHANNELS 3 Zrotation Xrotation Yrotation
              JOINT RightForeArm
              {
                OFFSET 0 20.4406 0
                CHANNELS 3 Zrotation Xrotation Yrotation
                JOINT RightForeArmRoll
                {
                  OFFSET 0 7.87515 0
                  CHANNELS 3 Zrotation Xrotation Yrotation
                  JOINT RightHand
                  {
                    OFFSET 0 15.8037 0
                    CHANNELS 3 Zrotation Xrotation Yrotation
                    End Site
                    {
                      OFFSET 0 0 0
                    }
                  }
                }
              }
            }
          }
        }
        JOINT LeftShoulder
        {
          OFFSET 4.1327 10.5992 -0.575451
          CHANNELS 3 Zrotation Xrotation Yrotation
          JOINT LeftArm
          {
            OFFSET 0 13.9018 0
            CHANNELS 3 Zrotation Xrotation Yrotation
            JOINT LeftArmRoll
            {
              OFFSET 0 7.01788 0
              CHANNELS 3 Zrotation Xrotation Yrotation
              JOINT LeftForeArm
              {
                OFFSET 0 20.4406 0
                CHANNELS 3 Zrotation Xrotation Yrotation
                JOINT LeftForeArmRoll
                {
                  OFFSET 0 7.87515 0
                  CHANNELS 3 Zrotation Xrotation Yrotation
                  JOINT LeftHand
                  {
                    OFFSET 0 15.8037 0
                    CHANNELS 3 Zrotation Xrotation Yrotation
                    End Site
                    {
                      OFFSET 0 0 0
                    }
                  }
                }
              }
            }
          }
        }
      }
    }
  }
  JOINT RightUpLeg
  {
    OFFSET -7.06048 -1.2947 -1.08609
    CHANNELS 3 Zrotation Xrotation Yrotation
    JOINT RightUpLegRoll
    {
      OFFSET 0 18.5308 0
      CHANNELS 3 Zrotation Xrotation Yrotation
      JOINT RightLeg
      {
        OFFSET 0 -22.9476 0
        CHANNELS 3 Zrotation Xrotation Yrotation
        JOINT RightLegRoll
        {
          OFFSET 0 23.0226 0
          CHANNELS 3 Zrotation Xrotation Yrotation
          JOINT RightFoot
          {
            OFFSET 0 19.1625 0
            CHANNELS 3 Zrotation Xrotation Yrotation
            JOINT RightToeBase
            {
              OFFSET 0 16.0188 0
              CHANNELS 3 Zrotation Xrotation Yrotation
              End Site
              {
                OFFSET 0.00678979 7.75782 -0.894207
              }
            }
          }
        }
      }
    }
  }
  JOINT LeftUpLeg
  {
    OFFSET 7.06048 -1.2947 -1.08609
    CHANNELS 3 Zrotation Xrotation Yrotation
    JOINT LeftUpLegRoll
    {
      OFFSET 0 18.5309 0
      CHANNELS 3 Zrotation Xrotation Yrotation
      JOINT LeftLeg
      {
        OFFSET 0 22.9475 0
        CHANNELS 3 Zrotation Xrotation Yrotation
        JOINT LeftLegRoll
        {
          OFFSET 0 23.2355 0
          CHANNELS 3 Zrotation Xrotation Yrotation
          JOINT LeftFoot
          {
            OFFSET 0 18.9496 0
            CHANNELS 3 Zrotation Xrotation Yrotation
            JOINT LeftToeBase
            {
              OFFSET 0 16.0188 0
              CHANNELS 3 Zrotation Xrotation Yrotation
              End Site
              {
                OFFSET -0.0304289 7.75782 -0.894207
              }
            }
          }
        }
      }
    }
  }
}
MOTION
Frames: 13
Frame Time: 0.00208333
51.7343 83.7967 21.228 1.33429 27.0787 -3.90707 0.3253 5.14721 -0.496379 0.711041 14.294 -1.08121 0.727808 15.9389 -1.09711 -25.4646 -30.246 -10.1007 22.395 14.6474 -7.42149 45.6057 -6.68494 -3.51202 134.832 41.1179 -35.8105 3.95664e-006 -9.226e-007 2.32054e-006 15.4101 45.1413 -8.86179 2.50071e-006 2.66851e-006 -2.99999 8.02948 -4.95159 0.697704 -58.4781 -10.8093 6.73358 -110.745 41.4133 37.4155 -7.81169e-006 -9.11453e-007 -7.06865e-006 -27.2475 58.7606 19.3996 5.41786e-006 1.76692e-005 3 -8.02907 -4.95099 -0.697506 164.647 68.8447 13.1535 180 1.52577e-005 179.322 174.608 57.3023 -178.685 4.23732e-006 -5.42119e-006 1.05085 -23.1691 72.8151 24.6121 8.19854 27.8022 -1.32847 -150.043 68.4615 -27.2127 4.57705e-006 1.05463e-005 -0.593497 -6.76638 -55.3829 -2.25227 1.26356e-006 7.58204e-007 -0.937238 19.1964 68.6487 -20.0824 -8.15362 27.5811 0.344817 
51.7233 83.9811 21.3061 1.30668 26.9651 -3.92854 0.321182 5.12801 -0.494702 0.702743 14.2556 -1.07775 0.719419 15.9005 -1.09349 -25.4117 -30.4094 -10.1797 22.3602 14.5926 -7.44926 45.7563 -6.67352 -3.51063 135.05 41.3638 -35.8743 3.95664e-006 -9.226e-007 2.32054e-006 15.3229 44.2066 -8.61898 2.50071e-006 2.66851e-006 -2.99999 8.02948 -4.95159 0.697704 -58.4228 -10.789 6.72107 -110.992 41.5985 37.4159 -7.81169e-006 -9.11453e-007 -7.06865e-006 -27.1206 57.9809 18.9826 5.41786e-006 1.76692e-005 3 -8.02907 -4.95099 -0.697506 165.145 68.4339 12.6309 180 1.52577e-005 179.322 174.68 56.8446 -178.749 4.23732e-006 -5.42119e-006 1.038 -23.0253 72.6987 24.4558 8.19693 27.7782 -1.30978 -150.6 68.0754 -26.6081 4.57705e-006 1.05463e-005 -0.594555 -6.71071 -54.95 -2.19753 1.26356e-006 7.58204e-007 -0.923551 19.1201 68.5503 -19.9967 -8.15302 27.592 0.330227 
51.7221 84.1724 21.4015 1.27838 26.8521 -3.94907 0.317114 5.10842 -0.493142 0.694568 14.2165 -1.07449 0.711154 15.8614 -1.09008 -25.354 -30.5681 -10.2585 22.3208 14.5263 -7.47629 45.909 -6.66044 -3.50808 135.265 41.6053 -35.9373 3.95664e-006 -9.226e-007 2.32054e-006 15.2384 43.2752 -8.38176 2.50071e-006 2.66851e-006 -2.99999 8.02948 -4.95159 0.697704 -58.3651 -10.7682 6.70827 -111.245 41.7823 37.4162 -7.81169e-006 -9.11453e-007 -7.06865e-006 -26.9967 57.1945 18.5707 5.41786e-006 1.76692e-005 3 -8.02907 -4.95099 -0.697506 165.625 68.0211 12.1274 180 1.52577e-005 179.322 174.751 56.3848 -178.812 4.23732e-006 -5.42119e-006 1.02514 -22.882 72.581 24.3 8.19536 27.7545 -1.29109 -151.138 67.6877 -26.022 4.57705e-006 1.05463e-005 -0.595611 -6.65479 -54.5164 -2.14336 1.26356e-006 7.58204e-007 -0.910005 19.0458 68.4535 -19.9132 -8.15258 27.5999 0.319753 
51.7062 84.3532 21.4801 1.24933 26.7396 -3.96866 0.313137 5.08837 -0.491744 0.686589 14.1764 -1.07151 0.70309 15.8214 -1.08695 -25.292 -30.7243 -10.3366 22.278 14.4537 -7.50252 46.0627 -6.64567 -3.50431 135.478 41.8416 -35.9992 3.95664e-006 -9.226e-007 2.32054e-006 15.1567 42.3488 -8.15064 2.50071e-006 2.66851e-006 -2.99999 8.02948 -4.95159 0.697704 -58.3056 -10.7465 6.69488 -111.503 41.9642 37.4153 -7.81169e-006 -9.11453e-007 -7.06865e-006 -26.8738 56.4011 18.1629 5.41786e-006 1.76692e-005 3 -8.02907 -4.95099 -0.697506 166.086 67.6064 11.6424 180 1.52577e-005 179.322 174.821 55.9234 -178.873 4.23732e-006 -5.42119e-006 1.01227 -22.7392 72.4622 24.1448 8.19383 27.7311 -1.27252 -151.658 67.2987 -25.4541 4.57705e-006 1.05463e-005 -0.596654 -6.59861 -54.0828 -2.08986 1.26356e-006 7.58204e-007 -0.896659 18.9745 68.3596 -19.833 -8.15237 27.6037 0.31488 
51.7129 84.5416 21.5603 1.21946 26.6278 -3.9873 0.309292 5.0678 -0.490553 0.678879 14.1353 -1.06889 0.695301 15.7803 -1.08419 -25.2267 -30.88 -10.4133 22.2327 14.3799 -7.52791 46.2165 -6.6292 -3.49928 135.69 42.0718 -36.0594 3.95664e-006 -9.226e-007 2.32054e-006 15.0779 41.4289 -7.9261 2.50071e-006 2.66851e-006 -2.99999 8.02948 -4.95159 0.697704 -58.2453 -10.7235 6.68059 -111.766 42.1437 37.4119 -7.81169e-006 -9.11453e-007 -7.06865e-006 -26.7502 55.6006 17.7582 5.41786e-006 1.76692e-005 3 -8.02907 -4.95099 -0.697506 166.531 67.19 11.175 180 1.52577e-005 179.322 174.89 55.4605 -178.933 4.23732e-006 -5.42119e-006 0.999392 -22.5972 72.3423 23.9904 8.19236 27.7083 -1.25416 -152.159 66.9088 -24.904 4.57705e-006 1.05463e-005 -0.597674 -6.54211 -53.6499 -2.03713 1.26356e-006 7.58204e-007 -0.883574 18.907 68.2697 -19.7569 -8.15245 27.6023 0.317095 
51.701 84.7236 21.6495 1.1887 26.5166 -4.00497 0.30562 5.04663 -0.489613 0.671512 14.093 -1.06671 0.687862 15.738 -1.08188 -25.1589 -31.0371 -10.4882 22.1859 14.31 -7.55241 46.3696 -6.611 -3.49297 135.9 42.2952 -36.1175 3.95664e-006 -9.226e-007 2.32054e-006 15.002 40.517 -7.70855 2.50071e-006 2.66851e-006 -2.99999 8.02948 -4.95159 0.697704 -58.1851 -10.6987 6.66511 -112.033 42.3203 37.4051 -7.81169e-006 -9.11453e-007 -7.06865e-006 -26.6242 54.7925 17.3558 5.41786e-006 1.76692e-005 3 -8.02907 -4.95099 -0.697506 166.959 66.772 10.7249 180 1.52577e-005 179.322 174.957 54.9965 -178.991 4.23732e-006 -5.42119e-006 0.986516 -22.4562 72.2216 23.837 8.19096 27.6863 -1.23614 -152.642 66.5183 -24.371 4.57705e-006 1.05463e-005 -0.59866 -6.48524 -53.2186 -1.98525 1.26356e-006 7.58204e-007 -0.870809 18.8441 68.185 -19.6859 -8.15288 27.5946 0.327882 
51.6987 84.9027 21.7196 1.15699 26.4061 -4.02166 0.30216 5.02481 -0.488968 0.66456 14.0494 -1.06505 0.680846 15.6944 -1.08009 -25.0893 -31.1977 -10.5606 22.1387 14.2492 -7.57597 46.521 -6.59106 -3.48532 136.109 42.5108 -36.173 3.95664e-006 -9.226e-007 2.32054e-006 14.9289 39.6147 -7.49838 2.50071e-006 2.66851e-006 -2.99999 8.02948 -4.95159 0.697704 -58.1257 -10.6718 6.64814 -112.303 42.4936 37.3936 -7.81169e-006 -9.11453e-007 -7.06865e-006 -26.4944 53.9766 16.955 5.41786e-006 1.76692e-005 3 -8.02907 -4.95099 -0.697506 167.371 66.3526 10.2914 180 1.52577e-005 179.322 175.022 54.5316 -179.047 4.23732e-006 -5.42119e-006 0.973642 -22.3163 72.1001 23.6849 8.18965 27.6653 -1.21857 -153.108 66.1276 -23.8547 4.57705e-006 1.05463e-005 -0.599601 -6.42795 -52.7896 -1.9343 1.26356e-006 7.58204e-007 -0.858423 18.7867 68.1068 -19.6208 -8.15371 27.5796 0.348721 
51.688 85.0837 21.8083 1.12426 26.2964 -4.03735 0.298954 5.00226 -0.488663 0.658096 14.0044 -1.06398 0.674327 15.6493 -1.07891 -25.0188 -31.3639 -10.63 22.092 14.2025 -7.59854 46.6698 -6.56934 -3.47631 136.317 42.7178 -36.2255 3.95664e-006 -9.226e-007 2.32054e-006 14.8586 38.7237 -7.29594 2.50071e-006 2.66851e-006 -2.99999 8.02948 -4.95159 0.697704 -58.068 -10.6421 6.62937 -112.576 42.6631 37.3763 -7.81169e-006 -9.11453e-007 -7.06865e-006 -26.3592 53.1527 16.5551 5.41786e-006 1.76692e-005 3 -8.02907 -4.95099 -0.697506 167.768 65.9318 9.87401 180 1.52577e-005 179.321 175.085 54.0661 -179.102 4.23732e-006 -5.42119e-006 0.960774 -22.1776 71.9781 23.5342 8.18843 27.6456 -1.20155 -153.558 65.7371 -23.3546 4.57705e-006 1.05463e-005 -0.600486 -6.37016 -52.3637 -1.88435 1.26356e-006 7.58204e-007 -0.846477 18.7355 68.0362 -19.5626 -8.15499 27.5561 0.381088 
51.6867 85.2687 21.8854 1.09044 26.1875 -4.05203 0.296042 4.97892 -0.488742 0.652193 13.9577 -1.06359 0.668379 15.6026 -1.07841 -24.9481 -31.5376 -10.6957 22.0469 14.1753 -7.62006 46.8151 -6.54584 -3.46589 136.524 42.9154 -36.2744 3.95664e-006 -9.226e-007 2.32054e-006 14.7907 37.8455 -7.10153 2.50071e-006 2.66851e-006 -2.99999 8.02948 -4.95159 0.697704 -58.0128 -10.6094 6.60851 -112.849 42.8282 37.352 -7.81169e-006 -9.11453e-007 -7.06865e-006 -26.2173 52.3205 16.1555 5.41786e-006 1.76692e-005 3 -8.02907 -4.95099 -0.697506 168.15 65.5099 9.47215 180 1.52577e-005 179.321 175.146 53.6003 -179.154 4.23732e-006 -5.42119e-006 0.947914 -22.0404 71.8558 23.385 8.18733 27.6272 -1.1852 -153.991 65.347 -22.8704 4.57705e-006 1.05463e-005 -0.601306 -6.3118 -51.9416 -1.83545 1.26356e-006 7.58204e-007 -0.83503 18.6913 67.9744 -19.5121 -8.15674 27.5231 0.426451 
51.6764 85.444 21.9704 1.05546 26.0794 -4.06569 0.293463 4.95472 -0.48925 0.646921 13.9093 -1.06396 0.663075 15.5543 -1.07867 -24.878 -31.7209 -10.7574 22.0044 14.1724 -7.64049 46.9559 -6.52053 -3.45402 136.73 43.1027 -36.3192 3.95664e-006 -9.226e-007 2.32054e-006 14.7252 36.9817 -6.91547 2.50071e-006 2.66851e-006 -2.99999 8.02948 -4.95159 0.697704 -57.961 -10.5731 6.58526 -113.124 42.9886 37.3195 -7.81169e-006 -9.11453e-007 -7.06865e-006 -26.0673 51.4795 15.7554 5.41786e-006 1.76692e-005 3 -8.02907 -4.95099 -0.697506 168.518 65.0869 9.0854 180 1.52577e-005 179.321 175.205 53.1344 -179.205 4.23732e-006 -5.42119e-006 0.935068 -21.9047 71.7332 23.2376 8.18636 27.6105 -1.16963 -154.408 64.9578 -22.4014 4.57705e-006 1.05463e-005 -0.602049 -6.25278 -51.5242 -1.78768 1.26356e-006 7.58204e-007 -0.824143 18.655 67.9227 -19.47 -8.15897 27.4795 0.486268 
51.6653 85.6308 22.0456 1.01945 25.9723 -4.07815 0.291075 4.92953 -0.490263 0.642005 13.859 -1.06517 0.658138 15.5039 -1.07979 -24.8072 -31.9098 -10.8155 21.9641 14.1851 -7.65951 47.0933 -6.49124 -3.43908 136.937 43.2818 -36.3603 3.95664e-006 -9.226e-007 2.32054e-006 14.6569 36.1236 -6.73271 2.50071e-006 2.66851e-006 -2.99999 8.02948 -4.95159 0.697704 -57.9109 -10.5325 6.55917 -113.4 43.1455 37.2781 -7.81169e-006 -9.11453e-007 -7.06865e-006 -25.9106 50.6247 15.3512 5.41786e-006 1.76692e-005 3 -8.02907 -4.95099 -0.697506 168.872 64.6629 8.71418 180 1.52577e-005 179.321 175.262 52.668 -179.253 4.23732e-006 -5.42119e-006 0.922199 -21.7695 71.6095 23.0908 8.18549 27.5961 -1.15393 -154.812 64.5696 -21.9445 4.57705e-006 1.05463e-005 -0.602721 -6.19233 -51.1105 -1.74046 1.26356e-006 7.58204e-007 -0.813794 18.6257 67.8804 -19.4358 -8.16163 27.4246 0.561156 
51.656 85.8053 22.1302 0.982591 25.8663 -4.08932 0.288724 4.90335 -0.491788 0.637155 13.8066 -1.06721 0.653278 15.4516 -1.08174 -24.7335 -32.0989 -10.8711 21.9243 14.2006 -7.67695 47.2293 -6.45642 -3.41995 137.146 43.4552 -36.3982 3.95664e-006 -9.226e-007 2.32054e-006 14.5819 35.263 -6.54875 2.50071e-006 2.66851e-006 -2.99999 8.02948 -4.95159 0.697704 -57.8605 -10.4876 6.53024 -113.68 43.3006 37.2285 -7.81169e-006 -9.11453e-007 -7.06865e-006 -25.7506 49.7522 14.9412 5.41786e-006 1.76692e-005 3 -8.02907 -4.95099 -0.697506 169.212 64.2379 8.35827 180 1.52577e-005 179.321 175.316 52.2005 -179.3 4.23732e-006 -5.42119e-006 0.909277 -21.6339 71.4836 22.9437 8.1847 27.5842 -1.1373 -155.206 64.1822 -21.497 4.57705e-006 1.05463e-005 -0.60334 -6.12991 -50.699 -1.69327 1.26356e-006 7.58203e-007 -0.8039 18.602 67.8455 -19.4079 -8.16462 27.3594 0.649842 
51.6562 85.9958 22.2036 0.944888 25.7612 -4.09927 0.286438 4.87627 -0.493761 0.632426 13.7525 -1.06998 0.648548 15.3974 -1.08441 -24.6568 -32.2883 -10.9243 21.8847 14.2188 -7.69298 47.364 -6.41693 -3.39729 137.357 43.6228 -36.433 3.95664e-006 -9.226e-007 2.32054e-006 14.5018 34.4023 -6.36467 2.50071e-006 2.66851e-006 -2.99999 8.02948 -4.95159 0.697704 -57.8096 -10.439 6.49889 -113.963 43.4536 37.1717 -7.81169e-006 -9.11453e-007 -7.06865e-006 -25.5891 48.8641 14.5281 5.41786e-006 1.76692e-005 3 -8.02907 -4.95099 -0.697506 169.539 63.8119 8.01626 180 1.52577e-005 179.321 175.368 51.7318 -179.345 4.23732e-006 -5.42119e-006 0.896313 -21.4981 71.3559 22.7964 8.18399 27.5745 -1.12003 -155.589 63.7955 -21.059 4.57705e-006 1.05463e-005 -0.603912 -6.06582 -50.2894 -1.64621 1.26356e-006 7.58203e-007 -0.794425 18.5834 67.8175 -19.3855 -8.16776 27.2848 0.750932 
